<?xml version="1.0" standalone="no"?><!DOCTYPE svg PUBLIC "-//W3C//DTD SVG 1.1//EN" "http://www.w3.org/Graphics/SVG/1.1/DTD/svg11.dtd"><svg t="1757234284426" class="icon" viewBox="0 0 1024 1024" version="1.1" xmlns="http://www.w3.org/2000/svg" p-id="9729" xmlns:xlink="http://www.w3.org/1999/xlink" width="200" height="200"><path d="M480.384 918.4C496.725333 934.784 523.221333 934.784 539.562667 918.485333L916.565333 541.482667C920.448 537.6 923.477333 532.992 925.653333 527.872 927.786667 522.752 928.896 517.333333 928.896 511.872 928.896 506.410667 927.786667 500.949333 925.653333 495.914667 923.477333 490.794667 920.448 486.144 916.565333 482.304L539.648 105.173333C523.264 88.832 496.810667 88.832 480.426667 105.173333 464.042667 121.557333 464.042667 148.010667 480.426667 164.394667L785.92 469.888 137.258667 469.888C114.133333 469.888 95.36 488.661333 95.36 511.786667 95.36 534.912 114.133333 556.373333 137.258667 556.373333L785.877333 556.373333 480.384 859.221333C464 875.562667 464 902.058667 480.384 918.4L480.384 918.4 480.384 918.4Z" p-id="9730"></path></svg>