<?xml version="1.0" standalone="no"?><!DOCTYPE svg PUBLIC "-//W3C//DTD SVG 1.1//EN" "http://www.w3.org/Graphics/SVG/1.1/DTD/svg11.dtd"><svg t="1756620454581" class="icon" viewBox="0 0 1045 1024" version="1.1" xmlns="http://www.w3.org/2000/svg" p-id="1473" xmlns:xlink="http://www.w3.org/1999/xlink" width="204.1015625" height="200"><path d="M26.965333 469.333333h970.069334c7.168 0 14.037333 2.261333 19.072 6.229334a19.370667 19.370667 0 0 1 7.893333 15.104v42.666666c0 5.674667-2.858667 11.093333-7.893333 15.104a30.933333 30.933333 0 0 1-19.072 6.229334H26.965333a30.933333 30.933333 0 0 1-19.072-6.229334A19.370667 19.370667 0 0 1 0 533.333333v-42.666666c0-5.674667 2.858667-11.093333 7.893333-15.104A30.933333 30.933333 0 0 1 26.965333 469.333333zM26.965333 213.333333h970.069334c7.168 0 14.037333 2.261333 19.072 6.229334 5.034667 4.010667 7.893333 9.429333 7.893333 15.104v42.666666c0 5.674667-2.858667 11.093333-7.893333 15.104a30.890667 30.890667 0 0 1-19.072 6.229334H26.965333a30.890667 30.890667 0 0 1-19.072-6.229334A19.370667 19.370667 0 0 1 0 277.333333v-42.666666c0-5.674667 2.858667-11.093333 7.893333-15.104A30.890667 30.890667 0 0 1 26.965333 213.333333zM26.965333 725.333333h970.069334c7.168 0 14.037333 2.261333 19.072 6.229334a19.370667 19.370667 0 0 1 7.893333 15.104v42.666666c0 5.674667-2.858667 11.093333-7.893333 15.104a30.933333 30.933333 0 0 1-19.072 6.229334H26.965333a30.933333 30.933333 0 0 1-19.072-6.229334A19.370667 19.370667 0 0 1 0 789.333333v-42.666666c0-5.674667 2.858667-11.093333 7.893333-15.104A30.933333 30.933333 0 0 1 26.965333 725.333333z" fill="#8F959E" p-id="1474"></path></svg>