<?xml version="1.0" standalone="no"?><!DOCTYPE svg PUBLIC "-//W3C//DTD SVG 1.1//EN" "http://www.w3.org/Graphics/SVG/1.1/DTD/svg11.dtd"><svg t="1757235182529" class="icon" viewBox="0 0 1024 1024" version="1.1" xmlns="http://www.w3.org/2000/svg" p-id="29252" xmlns:xlink="http://www.w3.org/1999/xlink" width="200" height="200"><path d="M291.823392 726.667128c-5.868661 17.403369 5.866614 29.009707 17.603936 34.811853h11.740392l170.217777-46.416146h5.871731l451.960578-446.73353c11.738345-11.606339 23.478737-34.81697 23.478738-52.220339 0-23.205515-11.740392-46.416146-29.347399-63.824631l-41.085744-40.60786c-17.610076-17.403369-41.088814-23.205515-64.567551-23.205514-17.610076 0-41.088814 5.802146-52.829206 23.205514L338.777797 558.415123l-46.954405 168.252005z m545.873482-580.179822c10.160407-10.042727 23.478737-5.799076 29.347398 0l41.088814 40.613999c18.681478 13.873985 8.998955 29.641087 1.142009 36.892235l-42.230823 44.335765-70.436212-75.425854 41.088814-46.416145z m-88.043219 92.826151l70.433142 75.425854-328.700277 324.897671-70.431096-75.422783 328.698231-324.900742zM385.736295 610.629321l64.567551 63.819515-88.046289 23.205514 23.478738-87.025029z m551.742143-208.866005c-17.603937 0-29.345352 11.606339-29.345352 29.012778v417.726893c0 23.207561-17.607006 40.614-41.088814 40.614H150.947897c-23.473621 0-41.082674-17.406438-41.082674-40.614v-684.612313c0-23.202445 17.610076-40.608883 41.082674-40.608883h463.700971c17.610076 0 29.347398-11.606339 29.347399-29.009707 0-17.406438-11.738345-29.007661-29.347399-29.007661h-463.700971c-51.170426 0-96.835466 38.112016-99.644441 93.234451v706.488553c2.808976 50.196239 48.474015 93.748151 99.644441 93.74815h721.968106c52.826136 0 99.781564-40.608883 99.781564-98.631368V436.57517c0-17.402345-17.610076-34.811854-35.219129-34.811854z" fill="#5D5D5D" p-id="29253"></path></svg>