<?xml version="1.0" standalone="no"?><!DOCTYPE svg PUBLIC "-//W3C//DTD SVG 1.1//EN" "http://www.w3.org/Graphics/SVG/1.1/DTD/svg11.dtd"><svg t="1757235133441" class="icon" viewBox="0 0 1024 1024" version="1.1" xmlns="http://www.w3.org/2000/svg" p-id="28278" xmlns:xlink="http://www.w3.org/1999/xlink" width="200" height="200"><path d="M415.325091 286.580364V232.261818a250.833455 250.833455 0 0 0-250.554182 250.88 35.84 35.84 0 0 1-71.68 0 322.466909 322.466909 0 0 1 322.234182-322.56V100.305455a7.168 7.168 0 0 1 11.496727-5.725091l124.229818 93.137454a7.168 7.168 0 0 1 0 11.496727L426.775273 292.305455a7.168 7.168 0 0 1-11.450182-5.725091zM891.810909 784.290909v-307.2a102.306909 102.306909 0 0 0-102.4-102.4h-409.6a102.213818 102.213818 0 0 0-94.580364 63.208727 102.213818 102.213818 0 0 0-7.819636 39.191273v307.2a102.213818 102.213818 0 0 0 63.208727 94.626909 101.841455 101.841455 0 0 0 39.191273 7.773091h409.6a102.260364 102.260364 0 0 0 102.4-102.4z m-61.44 0c0 11.310545-4.002909 20.945455-11.962182 28.951273a39.470545 39.470545 0 0 1-28.997818 12.008727h-409.6a39.470545 39.470545 0 0 1-28.951273-12.008727 39.470545 39.470545 0 0 1-12.008727-28.951273v-307.2c0-11.310545 4.002909-20.945455 12.008727-28.951273a39.470545 39.470545 0 0 1 28.951273-12.008727h409.6c11.310545 0 20.945455 4.002909 28.997818 12.008727 7.959273 8.005818 11.962182 17.687273 11.962182 28.951273v307.2z" p-id="28279"></path></svg>