<?xml version="1.0" standalone="no"?><!DOCTYPE svg PUBLIC "-//W3C//DTD SVG 1.1//EN" "http://www.w3.org/Graphics/SVG/1.1/DTD/svg11.dtd"><svg t="1758531815669" class="icon" viewBox="0 0 1024 1024" version="1.1" xmlns="http://www.w3.org/2000/svg" p-id="3411" xmlns:xlink="http://www.w3.org/1999/xlink" width="200" height="200"><path d="M512 0c282.996364 0 512 229.003636 512 512s-229.003636 512-512 512S0 794.996364 0 512 229.003636 0 512 0z m120.087273 427.287273c-102.4 0-182.458182 69.818182-182.458182 155.461818 0 85.643636 80.058182 155.461818 182.458182 155.461818 21.410909 0 42.821818-5.585455 64.232727-11.170909l58.647273 32.581818-15.825455-53.992727c43.752727-32.581818 75.403636-75.403636 75.403637-122.88 0-85.643636-85.643636-155.461818-182.458182-155.461818z m-207.592728-162.909091C306.269091 264.378182 209.454545 344.436364 209.454545 446.836364c0 59.578182 31.650909 107.985455 85.643637 145.221818l-21.410909 64.232727 75.403636-37.236364c26.996364 5.585455 48.407273 11.170909 75.403636 11.17091 6.516364 0 13.032727-0.930909 20.48-0.93091-3.723636-13.963636-6.516364-28.858182-6.516363-44.683636 0-94.021818 80.058182-170.356364 182.458182-170.356364 6.516364 0 13.963636 0 20.48 0.93091-18.618182-86.574545-111.709091-150.807273-216.901819-150.807273z m269.963637 248.552727a23.272727 23.272727 0 1 1 0 46.545455 23.272727 23.272727 0 0 1 0-46.545455z m-118.225455-1.861818a23.272727 23.272727 0 1 1 0 46.545454 23.272727 23.272727 0 0 1 0-46.545454z m-223.418182-159.185455a33.512727 33.512727 0 1 1 0 67.025455 33.512727 33.512727 0 0 1 0-67.025455z m149.876364-0.930909a33.512727 33.512727 0 1 1 0 67.025455 33.512727 33.512727 0 0 1 0-67.025455z" fill="#50B674" p-id="3412"></path></svg>