<?xml version="1.0" standalone="no"?><!DOCTYPE svg PUBLIC "-//W3C//DTD SVG 1.1//EN" "http://www.w3.org/Graphics/SVG/1.1/DTD/svg11.dtd"><svg t="1758531762562" class="icon" viewBox="0 0 1024 1024" version="1.1" xmlns="http://www.w3.org/2000/svg" p-id="2419" xmlns:xlink="http://www.w3.org/1999/xlink" width="200" height="200"><path d="M64 512c0 247.4 200.6 448 448 448s448-200.6 448-448S759.4 64 512 64 64 264.6 64 512z m769.1 63.7" fill="#0EB519" p-id="2420"></path><path d="M376.3 339.7c13.8 0 23-9.4 23-23.3 0-14-9.3-23.3-23-23.3-13.8 0-27.7 9.2-27.7 23.3 0 13.9 13.9 23.3 27.7 23.3zM505 293.1c-13.8 0-27.6 9.2-27.6 23.3 0 14 13.8 23.3 27.6 23.3 13.9 0 23.1-9.4 23.1-23.3 0-14-9.1-23.3-23.1-23.3z m161.1 172.6c13.9 0 23.1-9.3 23.1-18.6s-9.2-18.7-23.1-18.7c-9.1 0-18.2 9.4-18.2 18.7 0 9.3 9.2 18.6 18.2 18.6z m-101.2 0c14 0 23-9.3 23-18.6s-9.1-18.7-23-18.7c-9.1 0-18.4 9.4-18.4 18.7 0 9.3 9.3 18.6 18.4 18.6z m39.1-122c-87.4 0-156.5 66.1-156.5 147.6 0 13.6 2.1 26.7 5.7 39.1-5.7 0.5-11.4 0.7-17.2 0.7-23 0-41.5-4.7-64.5-9.4l-64.3 32.7 18.4-56.1c-46.1-32.6-73.6-74.7-73.6-125.9 0-88.8 82.9-158.7 184.1-158.7 90.5 0 169.8 55.9 185.7 131-5.9-0.6-11.8-1-17.8-1z m168 145.4c0 42-27.5 79.3-64.5 107.3l13.8 46.7-50.5-28c-18.4 4.7-36.9 9.3-55.2 9.3-87.5 0-156.6-60.6-156.6-135.3 0-74.6 69.1-135.4 156.6-135.4 82.8 0 156.4 60.8 156.4 135.4z m0 0M328.8 824.5h-8.6c0.5-3.3 0.8-6.2 1-8.8 0.2-2.6 0.3-5.2 0.3-7.8V782c-0.8 1-1.7 2.1-2.6 3.1-0.9 1-1.9 2.1-2.8 3.1-1.8-2.5-3.6-4.5-5.6-6.1 2.1-1.6 4.1-3.5 6-5.7 1.9-2.2 3.5-4.4 4.8-6.6 0.5-0.7 1-1.6 1.6-2.7 0.6-1.1 1.2-2.3 1.8-3.6l1.8-3.9c0.6-1.3 1.1-2.6 1.5-3.8 1.1 0.8 2.2 1.6 3.4 2.4 1.2 0.8 2.2 1.3 3.1 1.7 1.9 0.8 1.9 1.5 0 2.1-0.1 0-0.3 0.1-0.5 0.4-0.2 0.3-0.5 0.8-0.9 1.4-0.4 0.7-1 1.6-1.6 2.8-0.7 1.2-1.5 2.7-2.6 4.5v53.4z m6.2-84.9c-0.4 0.1-1 0.5-1.7 1.2-0.8 0.7-1.6 1.6-2.6 2.9-2.2 2.9-4.5 5.7-6.9 8.3-2.4 2.7-4.5 4.8-6.2 6.5-0.7-1-1.6-1.9-2.8-2.7-1.2-0.9-2.4-1.6-3.8-2.1 1.7-1.1 3.4-2.5 5-4.2 1.6-1.7 3.2-3.5 4.6-5.3 1.4-1.9 2.8-3.9 4-5.9 1.2-2.1 2.2-4 3-6 1.2 1.1 2.4 2.1 3.7 3.1 1.3 1 2.5 1.7 3.5 2.3 1.5 0.8 1.6 1.5 0.2 1.9z m36.8 61.8c-2.5 1.4-5 3-7.7 4.8-2.6 1.8-4.8 3.6-6.6 5.3-0.5-1-1.3-2.1-2.1-3.3-0.9-1.3-1.7-2.3-2.4-3 1.5-0.8 2.3-2 2.3-3.5v-12.1h-8.8c-0.1 4.3-0.3 7.8-0.6 10.6s-0.8 5.3-1.4 7.3c-0.7 2-1.5 3.8-2.6 5.3s-2.5 3.1-4.1 4.8c-0.8-0.8-1.7-1.5-2.9-2.1-1.2-0.7-2.6-1.1-4.3-1.5 3.7-2.7 6.3-6.5 7.8-11.6s1.9-11.7 1.2-19.7c1.8 0.3 3.6 0.5 5.6 0.6 1.9 0.1 4 0.2 6.3 0.2 2.2 0 4 0 5.5-0.1s3-0.3 4.7-0.6v17.7c1.9-1 3.5-2 4.9-2.9 1.4-0.9 2.8-1.9 4.1-3.1-0.1 1.4-0.1 2.7 0.2 3.9 0 1 0.4 2.1 0.9 3z m-6.1-24.4c-1.8-0.3-3.9-0.6-6.2-0.7-2.4-0.1-5.3-0.2-8.8-0.2-3.4 0-6.3 0.1-8.7 0.2-2.4 0.1-4.5 0.4-6.3 0.7v-7.8c1.9 0.3 4 0.5 6.4 0.6 2.3 0.1 5.2 0.2 8.6 0.2 3.5 0 6.4-0.1 8.8-0.2 2.4-0.1 4.4-0.3 6.2-0.6v7.8z m-1.8-20c0-3.2 0-6.2-0.1-9.1-0.1-2.9-0.2-5.2-0.3-6.9 0.8 0.5 2 0.8 3.5 1 1.5 0.2 2.7 0.2 3.5 0.1 1.3-0.2 1.5 0.2 0.6 1.1-0.5 0.5-0.8 2.6-0.9 6-0.1 3.5-0.1 8.2 0.1 14.1-0.8-0.1-1.6-0.1-2.3-0.2-0.7-0.1-1.6-0.1-2.7-0.2s-2.6-0.1-4.3-0.1h-13.9c-1.8 0-3.3 0-4.5 0.1-1.2 0.1-2.1 0.1-2.9 0.2-0.8 0.1-1.5 0.1-2.4 0.2 0.5-5.8 0.7-10.6 0.8-14.4 0-3.9-0.1-6.5-0.4-7.8 1.2 0.3 2.3 0.6 3.5 0.7 1.2 0.1 2.4 0.2 3.7 0.1 0.8 0 1 0.5 0.4 1.4-0.5 0.8-0.8 2.2-1 4.3-0.2 2.1-0.3 5.2-0.3 9.4h6.4v-10.3c0-2.7 0-4.9-0.1-6.6 0-1.7-0.1-3.1-0.1-4.1 0-1-0.1-2-0.1-2.8 1.2 0.3 2.3 0.6 3.5 0.8 1.2 0.2 2.4 0.3 3.8 0.5 1.6 0.1 1.9 0.8 0.7 2.2-0.8 0.8-1.2 7.5-1.2 20.4h7z m23.7 45.2c1.1 1.2 2.4 2.5 4 3.8 1.5 1.3 3.1 2.5 4.7 3.5 1.6 1.1 3.2 2.1 4.8 3 1.6 0.9 3 1.6 4.2 2.2-1.3 0.9-2.5 2-3.5 3.4s-2 2.9-2.9 4.7c-1-0.5-2.1-1.2-3.4-2.2-1.3-1-2.6-2.1-4-3.4-1.4-1.3-2.8-2.7-4.2-4.3-1.4-1.6-2.7-3.3-4-5-1.4 1.4-2.9 2.9-4.6 4.5-1.7 1.6-3.5 3.1-5.3 4.5-1.9 1.4-3.7 2.8-5.6 4-1.9 1.2-3.6 2.2-5.1 2.9-0.6-1-1.5-2-2.8-3.1-1.2-1.1-2.6-2.2-4.2-3.3 4.5-1.6 8.7-3.8 12.9-6.6 4.1-2.8 7.7-6.1 10.8-9.8-1.5-3.2-2.7-6.6-3.7-10.3-1-3.6-1.9-8-2.8-13.2l6.9-1.2c0.3 4 0.8 7.6 1.4 10.6 0.6 3.1 1.3 5.7 2.2 8.1 1.4-3 2.5-7.3 3.5-12.8 1-5.5 1.5-12.6 1.5-21.3h-7.6c-0.8 2.8-1.8 5.6-2.9 8.3-1.1 2.7-2.3 5-3.5 6.8-1-0.8-2-1.6-3.1-2.4-1.1-0.9-2.2-1.7-3.1-2.4 1.6-2.2 3-4.7 4.2-7.5 1.2-2.8 2.2-5.8 3.1-9.1 0.9-3.3 1.6-6.7 2.2-10.3 0.5-3.6 1-7.2 1.2-10.9 1.7 0.5 3.4 1.1 5.2 1.5 1.7 0.5 3.1 0.8 4.2 0.9 1.7 0.2 1.6 1-0.2 2.5-0.1 0.1-0.3 0.4-0.5 0.9s-0.5 1.3-0.9 2.5-0.9 2.8-1.5 4.7c-0.6 2-1.3 4.4-2.1 7.5 3.7 0 6.8 0 9.2-0.1 2.4-0.1 4.5-0.2 6.1-0.3 1.6-0.1 2.9-0.2 3.9-0.4 1-0.1 1.9-0.3 2.6-0.4v8.4c-2.3-0.2-5.2-0.3-8.7-0.3-0.2 5.7-0.5 10.7-1 15.1s-1.1 8.2-1.8 11.5c-0.7 3.3-1.5 6.1-2.5 8.5-1.2 2.4-2.2 4.5-3.3 6.3zM436.8 825.5h-9.7c0.4-3 0.7-6.1 0.9-9.1 0.2-3.1 0.3-6.5 0.3-10.4v-36.1c-1 1.8-2.2 3.6-3.4 5.4-1.2 1.9-2.6 3.9-4.2 6.2-0.6-1.6-1.4-3-2.5-4.2-1-1.2-2.3-2.3-3.7-3.3 1.4-1.6 2.8-3.1 4-4.7 1.2-1.5 2.3-3.2 3.3-4.9 1-1.7 2-3.5 2.9-5.4 0.9-1.9 1.8-4 2.7-6.3 1.3-3.3 2.5-6.7 3.5-10.4 1.1-3.6 1.9-7 2.4-10.1 1.8 1 3.4 1.7 4.8 2.2 1.4 0.5 2.9 0.9 4.5 1.2 1.2 0.2 1.9 0.5 2 0.9 0.1 0.4-0.4 1-1.5 1.7-0.2 0.1-0.4 0.3-0.6 0.6-0.2 0.2-0.4 0.6-0.6 1-0.2 0.4-0.5 1-0.8 1.7-0.3 0.7-0.7 1.6-1.2 2.7-0.6 1.5-1.2 2.9-1.7 4.3-0.5 1.3-1 2.6-1.6 3.8v73.2z m70-71.8c-3.9-0.2-8.3-0.4-13.2-0.6-4.9-0.2-10.9-0.3-18-0.3s-13.1 0.1-18 0.2-9.3 0.3-13.2 0.6v-9c3.9 0.3 8.3 0.6 13.2 0.8 4.9 0.2 10.9 0.3 17.9 0.3 7.1 0 13.1-0.1 18-0.3 5-0.2 9.4-0.4 13.2-0.8v9.1z m-5.7 28.8c-3.3-0.3-7-0.5-11.2-0.6-4.1-0.1-9.3-0.2-15.4-0.2-6 0-11.1 0.1-15.3 0.2-4.2 0.1-7.9 0.3-11.1 0.6v-8.7c3.3 0.3 7 0.5 11.2 0.6 4.2 0.1 9.3 0.2 15.2 0.2 6.1 0 11.2-0.1 15.4-0.2 4.1-0.1 7.9-0.3 11.2-0.6v8.7z m-0.5-14.2c-3.2-0.3-6.8-0.5-10.9-0.6-4.1-0.1-9.1-0.2-15.1-0.2-5.9 0-10.9 0.1-15 0.2s-7.7 0.3-10.9 0.7v-8.7c3.2 0.3 6.9 0.6 10.9 0.7 4.1 0.1 9.1 0.2 15 0.2 6 0 11-0.1 15.1-0.2s7.7-0.3 10.9-0.6v8.5z m-42.6 57h-9c0.3-1.5 0.5-2.9 0.6-4.3 0.1-1.4 0.2-2.9 0.2-4.7v-18c0-2-0.1-3.7-0.2-5.1-0.1-1.4-0.3-2.7-0.6-4 0.8 0.1 1.7 0.3 3 0.4 1.2 0.1 2.8 0.2 4.8 0.3 2 0.1 4.4 0.2 7.4 0.2 2.9 0 6.4 0.1 10.4 0.1 4.4 0 8.1 0 11-0.1 2.9 0 5.4-0.1 7.3-0.2 1.9-0.1 3.4-0.2 4.6-0.3 1.1-0.1 2.1-0.2 2.8-0.4-0.2 1.3-0.4 2.7-0.5 4.2-0.1 1.5-0.2 3.1-0.2 4.9v15.8c0 3.3 0.2 6.3 0.7 9.1h-8.9v-6.5H458v8.6z m33.4-28H458v12.2h33.4v-12.2z m-20.3-53.1c-0.3-1.7-0.8-3.5-1.4-5.3-0.6-1.9-1.3-3.6-2.1-5.1l11-2.7c0.7 1.6 1.4 3.2 2.1 4.9 0.7 1.7 1.3 3.3 2 5l-11.6 3.2zM540.6 761.7c1.9-2 3.7-4.2 5.3-6.7 1.6-2.5 3.2-5.6 4.8-9.4h-12.9c-1.3 0-2.7 0-4.2 0.1s-2.9 0.2-4.3 0.4-2.7 0.3-4 0.5c-1.2 0.2-2.3 0.4-3.1 0.6v-8.9c2.7 0.1 5.9 0.3 9.6 0.4 3.6 0.1 6.9 0.2 9.9 0.2 3.2 0 6.4-0.1 9.7-0.2 3.2-0.1 6.5-0.2 9.8-0.4-2.1 5.8-4.2 10.6-6.1 14.5-2 3.9-4.2 7.4-6.6 10.5 2.1 0.1 4.6 0.3 7.5 0.4 2.8 0.1 5.6 0.2 8.4 0.2 2.7 0 5.6-0.1 8.5-0.2 2.9-0.1 5.5-0.3 7.7-0.5-3.8-4.1-6.9-8.4-9.3-13-2.4-4.6-4-9.2-5-13.9l7.7-1.4c0.4 2.7 1.2 5.5 2.5 8.4 4.1-3.7 7.4-7.2 10-10.6 1.1 1.2 2.3 2.2 3.5 3.2 1.3 1 2.3 1.7 3 2.2 0.5 0.3 0.7 0.6 0.6 0.9-0.1 0.3-0.5 0.6-1.3 0.9-1 0.3-2.7 1.3-5 2.8-2.3 1.5-5 3.6-8.1 6.2l2.4 3.9c0.9 1.3 1.8 2.5 2.8 3.7 2.9-2.3 5.5-4.6 8-6.7 2.4-2.2 4.6-4.1 6.4-5.9 1 1.2 2.1 2.3 3.3 3.3 1.2 1.1 2.2 1.9 2.9 2.4 0.5 0.3 0.7 0.6 0.6 0.9-0.1 0.3-0.5 0.6-1.3 0.8-1.6 0.5-3.6 1.4-6.1 2.8-2.5 1.4-5.7 3.6-9.7 6.6 3 2.5 6.5 4.7 10.6 6.4 4 1.7 8 3 11.9 3.9-1.2 1.4-2.1 3-2.9 4.6-0.8 1.6-1.5 3.4-2 5.5-4.9-2.4-9.3-4.8-13-7.2-3.7-2.4-7-4.9-9.8-7.6v5.1c-1-0.2-2.2-0.4-3.6-0.5-1.4-0.1-3-0.2-4.7-0.3-1.7-0.1-3.5-0.1-5.3-0.2-1.9 0-3.6-0.1-5.3-0.1-1.7 0-3.5 0-5.3 0.1-1.8 0-3.5 0.1-5.2 0.2-1.6 0.1-3.2 0.2-4.6 0.3-1.4 0.1-2.6 0.3-3.5 0.4v-4.6c-3.5 3.6-7.1 6.8-10.8 9.6-3.7 2.8-7.9 5.6-12.5 8.6-0.9-1.6-1.8-2.8-2.7-3.8-0.9-1-2.1-1.9-3.4-2.9 3.2-1.4 6.3-2.9 9.3-4.5 2.9-1.6 6.1-3.9 9.6-6.7-1.4-2.1-2.8-4.2-4.4-6.4-1.5-2.2-2.8-3.9-3.9-5.1l6.8-3.5c1 1.2 2.1 2.7 3.4 4.5 1 1.8 2.2 3.5 3.4 5.2z m32.4 51.5c1.1-2.2 2.1-4.3 3-6.3 0.9-2 1.6-3.9 2.3-5.8 1.2 0.6 2.4 1.2 3.9 1.8 1.4 0.6 2.6 1 3.5 1.3 1.3 0.3 1.3 0.8 0 1.6-0.5 0.3-1.3 1.1-2.1 2.4-0.9 1.3-1.9 2.9-3 4.9 5.6 0 10.4-0.1 14.5-0.2s7.7-0.4 10.8-0.8v8.6c-1.6-0.1-3.5-0.3-5.8-0.4-2.3-0.1-5.1-0.2-8.4-0.3-3.4-0.1-7.4-0.1-12.1-0.2-4.7 0-10.3-0.1-16.8-0.1-10.1 0.1-18.4 0.2-24.9 0.3-6.5 0.1-11.8 0.3-15.9 0.6V812c3.4 0.3 7.3 0.5 11.6 0.7 4.3 0.2 8.6 0.3 12.9 0.3-0.7-1.4-1.4-2.9-2.2-4.4-0.8-1.5-1.6-2.7-2.3-3.6l6.8-2.9c1 1.3 2 3 3.2 5.1 1.2 2.1 2.2 4 3 5.8h18z m-9.3-35.6h9.4c2.6 0 4.9 0 6.9-0.1s3.9-0.2 5.6-0.3c1.7-0.1 3.5-0.2 5.2-0.4-0.3 1.5-0.4 3.3-0.5 5.5-0.1 2.2-0.1 4.3-0.1 6.5-0.1 2.3 0 4.5 0.1 6.6 0.1 2.1 0.3 3.9 0.4 5.5-1.9-0.1-3.6-0.2-5.3-0.3-1.7-0.1-3.6-0.2-5.6-0.2-2 0-4.3-0.1-6.9-0.1-2.6 0-5.7-0.1-9.3-0.1-3.3 0-6.2 0-8.7 0.1-2.5 0-4.8 0.1-6.9 0.1-2.1 0-4 0.1-5.7 0.2-1.7 0.1-3.5 0.1-5.4 0.2 0.2-2 0.4-3.9 0.5-5.8 0.1-1.9 0.2-4 0.2-6.2s0-4.2-0.1-6.2c-0.1-1.9-0.2-3.9-0.4-5.9 1.6 0.1 3.2 0.3 4.8 0.4 1.6 0.1 3.5 0.2 5.6 0.3 2.1 0.1 4.4 0.1 7 0.1 2.6 0.1 5.7 0.1 9.2 0.1zM545.1 794h37.2v-10h-37.2v10zM688.4 744c-9.7 0-17.8 0-24.3 0.1-6.4 0.1-11.8 0.2-16 0.3-4.2 0.1-7.5 0.2-9.9 0.3-2.4 0.1-4.4 0.2-6 0.4V736c3.2 0.3 7.3 0.6 12.5 0.8 5.2 0.2 12 0.3 20.4 0.3 4.2 0 7.9 0 11.3-0.1 3.4-0.1 6.3-0.2 8.9-0.3 2.6-0.1 4.9-0.2 6.9-0.3 2-0.1 3.7-0.2 5.2-0.4l-4.6 32.2c3.7-0.1 7-0.2 10-0.3 3-0.1 5.4-0.3 7.1-0.5v8.5c-1.1-0.1-2.5-0.3-4.3-0.4s-4.1-0.2-7.1-0.3c-3-0.1-6.8-0.1-11.4-0.2-4.6 0-10.3-0.1-17.1-0.1v5.9c1.1 2.4 2.3 4.7 3.6 7 1.3 2.3 2.8 4.4 4.3 6.2 3.4-2.1 6.5-4.5 9.5-7 2.9-2.6 5.2-5 6.9-7.2 1 1.1 2.4 2.3 4.1 3.7 1.7 1.3 3.2 2.4 4.5 3.2 0.7 0.4 1 0.7 0.9 0.9-0.1 0.2-0.8 0.4-2.2 0.5-0.6 0.1-1.6 0.4-2.9 1-1.3 0.6-2.6 1.3-4 2.2-1.9 1.2-3.8 2.5-6 3.6-2.1 1.2-4.3 2.4-6.5 3.5 1.6 1.3 3.5 2.6 5.7 4s4.6 2.6 7.1 3.8c2.5 1.1 5.1 2.1 7.7 2.9 2.6 0.8 5.1 1.4 7.4 1.6-1.4 1.5-2.6 3.1-3.6 4.8-1 1.7-1.8 3.4-2.4 4.9-8.9-3.2-16.1-7.3-21.5-12.1-5.4-4.9-9.6-11-12.6-18.3v25.1c0 1.8-0.1 3.2-0.4 4.3-0.2 1.1-0.9 2-1.9 2.7-1 0.7-2.6 1.3-4.8 1.9-2.2 0.5-5.2 1.1-9.1 1.7-0.5-1.7-1.2-3.4-1.9-5s-1.7-3.3-2.9-5.2c2.9 0.3 5.2 0.4 6.9 0.4 1.7 0 3-0.1 3.9-0.4 0.9-0.2 1.5-0.6 1.7-1.2 0.3-0.5 0.4-1.2 0.4-2.1V775c-6.4 0-11.8 0-16.2 0.1-4.4 0-8.2 0.1-11.2 0.2-3.1 0.1-5.6 0.2-7.5 0.3-2 0.1-3.6 0.3-5.1 0.4v-8.5c1.4 0.1 3.1 0.3 4.9 0.4 1.9 0.1 3.8 0.2 5.9 0.3 2.1 0.1 4.2 0.1 6.4 0.2 2.2 0 4.3 0.1 6.4 0.1H685l1.1-9c-8.5 0-15.6 0-21.3 0.1-5.7 0-10.4 0.1-14.2 0.2-3.8 0.1-6.9 0.2-9.3 0.3-2.4 0.1-4.5 0.2-6.4 0.4V752c1.9 0.1 4.1 0.3 6.5 0.4 2.4 0.1 5.5 0.2 9.4 0.3 3.9 0.1 8.7 0.1 14.4 0.2 5.8 0 13 0.1 21.8 0.1l1.4-9z m-30.8 49.3c0.1 1.5 0.4 2.9 0.7 4.3 0.3 1.3 0.7 2.5 1.3 3.3-0.9 0.3-2 0.8-3.2 1.4-1.2 0.6-2.6 1.2-4 1.9s-2.9 1.4-4.4 2.2c-1.5 0.8-2.9 1.5-4.3 2.2-2.7 1.4-5.3 3-7.9 4.6-2.6 1.6-5.2 3.3-7.7 5.1-0.8-1.6-1.6-3.2-2.6-4.7-1-1.6-2-3-2.9-4.4 1.2-0.4 2.6-0.9 4.2-1.5 1.5-0.6 3.2-1.2 4.8-1.9 1.7-0.7 3.4-1.4 5-2.1s3.3-1.5 4.9-2.2c2.6-1.2 5.2-2.4 7.8-3.7 2.6-1.5 5.3-2.9 8.3-4.5z m-19.8-13.1c0.8 0.6 1.7 1.3 2.7 2.2 1 0.8 2 1.7 3 2.6 1 0.9 2 1.9 3 2.8 1 0.9 1.9 1.8 2.7 2.6l-7 6.2c-0.6-0.9-1.4-1.8-2.3-2.8-0.9-1-1.8-2-2.8-2.9-1-1-2-1.9-3-2.7-1-0.9-2-1.6-2.8-2.1l6.5-5.9z" fill="#FFFFFF" p-id="2421"></path></svg>