<?xml version="1.0" standalone="no"?><!DOCTYPE svg PUBLIC "-//W3C//DTD SVG 1.1//EN" "http://www.w3.org/Graphics/SVG/1.1/DTD/svg11.dtd"><svg t="1756620813090" class="icon" viewBox="0 0 1024 1024" version="1.1" xmlns="http://www.w3.org/2000/svg" p-id="10286" xmlns:xlink="http://www.w3.org/1999/xlink" width="200" height="200"><path d="M836.923 72c44.548 0 80.236 36.806 82.915 82.478L920 160v417.58c0 13.256-10.745 24-24 24-12.15 0-22.192-9.028-23.78-20.742l-0.22-3.257V160c0-21.001-14.07-37.645-31.333-39.77l-3.744-0.23H187.077c-17.663 0-32.911 15.243-34.866 35.57L152 160v704c0 21.001 14.07 37.645 31.333 39.77l3.744 0.23h383.74c13.255 0 24 10.745 24 24 0 12.15-9.028 22.192-20.743 23.78l-3.256 0.22H187.077c-44.548 0-80.236-36.806-82.915-82.478L104 864V160c0-46.338 33.974-84.925 77.775-87.825l5.302-0.175h649.846z" fill="#666666" p-id="10287"></path><path d="M723.2 672h153.6c34.133 0 51.2 17.067 51.2 51.2v153.6c0 34.133-17.067 51.2-51.2 51.2H723.2c-34.133 0-51.2-17.067-51.2-51.2V723.2c0-34.133 17.067-51.2 51.2-51.2z" fill="#666666" p-id="10288"></path></svg>