<?xml version="1.0" standalone="no"?><!DOCTYPE svg PUBLIC "-//W3C//DTD SVG 1.1//EN" "http://www.w3.org/Graphics/SVG/1.1/DTD/svg11.dtd"><svg t="1757235254125" class="icon" viewBox="0 0 1024 1024" version="1.1" xmlns="http://www.w3.org/2000/svg" p-id="31333" xmlns:xlink="http://www.w3.org/1999/xlink" width="200" height="200"><path d="M277.333333 106.666667h85.333334a21.333333 21.333333 0 0 1 21.333333 21.333333v21.333333a21.333333 21.333333 0 0 1-21.333333 21.333334h-85.333334c-29.44 0-54.613333 10.410667-75.434666 31.232C181.077333 222.741333 170.666667 247.893333 170.666667 277.333333v85.333334a21.333333 21.333333 0 0 1-21.333334 21.333333H128a21.333333 21.333333 0 0 1-21.333333-21.333333v-85.333334a170.666667 170.666667 0 0 1 170.666666-170.666666z m384 0h85.333334a170.666667 170.666667 0 0 1 170.666666 170.666666v85.333334a21.333333 21.333333 0 0 1-21.333333 21.333333h-21.333333a21.333333 21.333333 0 0 1-21.333334-21.333333v-85.333334c0-29.44-10.410667-54.613333-31.253333-75.434666C801.28 181.077333 776.149333 170.666667 746.666667 170.666667h-85.333334a21.333333 21.333333 0 0 1-21.333333-21.333334V128a21.333333 21.333333 0 0 1 21.333333-21.333333z m-171.178666 251.434666c-2.282667-9.685333-4.693333-19.498667-7.104-29.653333a20.885333 20.885333 0 0 1 17.386666-25.386667l27.093334-4.138666a21.333333 21.333333 0 0 1 23.893333 15.765333l11.178667 43.413333h134.528a21.333333 21.333333 0 0 1 21.333333 21.333334v20.181333a21.333333 21.333333 0 0 1-21.333333 21.333333h-39.04a484.309333 484.309333 0 0 1-37.269334 93.354667 351.104 351.104 0 0 1-47.232 65.984c20.928 13.610667 43.029333 25.365333 66.048 35.114667 23.957333 10.112 48.426667 18.922667 73.344 26.410666 12.330667 3.712 18.901333 17.152 14.016 29.056l-11.733333 28.693334a21.013333 21.013333 0 0 1-27.029333 11.733333 1112.448 1112.448 0 0 1-90.133334-39.744 470.122667 470.122667 0 0 1-73.856-45.973333 523.989333 523.989333 0 0 1-73.856 47.04 976.042667 976.042667 0 0 1-88.128 40.853333 20.821333 20.821333 0 0 1-26.730666-10.88l-13.589334-29.546667c-5.461333-11.861333 1.109333-25.834667 13.546667-29.845333a821.994667 821.994667 0 0 0 74.069333-27.797333 453.973333 453.973333 0 0 0 63.210667-36.16 332.48 332.48 0 0 1-46.165333-64.938667 501.653333 501.653333 0 0 1-39.424-93.354667h-38.314667a21.333333 21.333333 0 0 1-21.333333-21.333333v-20.181333a21.333333 21.333333 0 0 1 21.333333-21.333334h141.290667z m67.456 130.944a345.109333 345.109333 0 0 0 26.986666-68.096h-126.741333a279.893333 279.893333 0 0 0 64.96 116.522667 262.933333 262.933333 0 0 0 34.794667-48.426667zM277.333333 853.333333h85.333334a21.333333 21.333333 0 0 1 21.333333 21.333334v21.333333a21.333333 21.333333 0 0 1-21.333333 21.333333h-85.333334a170.666667 170.666667 0 0 1-170.666666-170.666666v-85.333334a21.333333 21.333333 0 0 1 21.333333-21.333333h21.333333a21.333333 21.333333 0 0 1 21.333334 21.333333v85.333334c0 29.44 10.410667 54.613333 31.232 75.413333C222.741333 842.922667 247.893333 853.333333 277.333333 853.333333z m384 0h85.333334c29.44 0 54.613333-10.410667 75.413333-31.253333C842.922667 801.28 853.333333 776.149333 853.333333 746.666667v-85.333334a21.333333 21.333333 0 0 1 21.333334-21.333333h21.333333a21.333333 21.333333 0 0 1 21.333333 21.333333v85.333334a170.666667 170.666667 0 0 1-170.666666 170.666666h-85.333334a21.333333 21.333333 0 0 1-21.333333-21.333333v-21.333333a21.333333 21.333333 0 0 1 21.333333-21.333334z" p-id="31334"></path></svg>