<?xml version="1.0" standalone="no"?><!DOCTYPE svg PUBLIC "-//W3C//DTD SVG 1.1//EN" "http://www.w3.org/Graphics/SVG/1.1/DTD/svg11.dtd"><svg t="1756621231067" class="icon" viewBox="0 0 1024 1024" version="1.1" xmlns="http://www.w3.org/2000/svg" p-id="19530" xmlns:xlink="http://www.w3.org/1999/xlink" width="200" height="200"><path d="M517.333 881.643h-6.428c-3.215 0-3.215 0-6.429-3.214l-337.5-151.072c-12.857-6.428-19.286-16.071-19.286-28.928V319.143c0-3.214 3.215-6.429 3.215-9.643 0-3.214 3.214-3.214 3.214-6.429l6.429-6.428 3.214-3.214 337.5-151.072c9.643-3.214 19.286-3.214 25.714 0l337.5 151.072c3.214 0 3.214 0 3.214 3.214 3.215 0 3.215 3.214 6.429 3.214 3.214 3.214 3.214 3.214 3.214 6.429 3.215 3.214 3.215 6.428 3.215 9.643v379.285c0 12.857-6.429 25.715-19.286 28.929l-337.5 151.071c-3.214 0-3.214 3.215-6.429 3.215 3.215 3.214 3.215 3.214 0 3.214z m32.143-385.714v305.357L822.69 679.143V373.786L549.476 495.929z m-337.5 183.214L485.19 801.286V495.929L211.976 373.786v305.357zM260.19 325.57l257.143 115.715L774.476 325.57 517.333 209.857 260.19 325.571z" p-id="19531"></path></svg>