<?xml version="1.0" standalone="no"?><!DOCTYPE svg PUBLIC "-//W3C//DTD SVG 1.1//EN" "http://www.w3.org/Graphics/SVG/1.1/DTD/svg11.dtd"><svg t="1757236521545" class="icon" viewBox="0 0 1024 1024" version="1.1" xmlns="http://www.w3.org/2000/svg" p-id="44545" xmlns:xlink="http://www.w3.org/1999/xlink" width="200" height="200"><path d="M5.3248 511.488c0 56.0128 45.3632 101.376 101.376 101.376s101.376-45.3632 101.376-101.376-45.3632-101.376-101.376-101.376-101.376 45.3632-101.376 101.376z m405.504 0c0 56.0128 45.3632 101.376 101.376 101.376s101.376-45.3632 101.376-101.376-45.3632-101.376-101.376-101.376-101.376 45.3632-101.376 101.376z m405.504 0c0 56.0128 45.3632 101.376 101.376 101.376s101.376-45.3632 101.376-101.376-45.3632-101.376-101.376-101.376-101.376 45.3632-101.376 101.376z" p-id="44546"></path></svg>