<?xml version="1.0" standalone="no"?><!DOCTYPE svg PUBLIC "-//W3C//DTD SVG 1.1//EN" "http://www.w3.org/Graphics/SVG/1.1/DTD/svg11.dtd"><svg t="1756992891582" class="icon" viewBox="0 0 1024 1024" version="1.1" xmlns="http://www.w3.org/2000/svg" p-id="4090" xmlns:xlink="http://www.w3.org/1999/xlink" width="200" height="200"><path d="M499.665455 606.72A256 256 0 1 1 752.64 349.090909a256 256 0 0 1-252.974545 257.629091z m0-443.810909a186.181818 186.181818 0 0 0-183.156364 186.181818 183.156364 183.156364 0 1 0 366.312727 0 186.181818 186.181818 0 0 0-183.156363-186.181818z" p-id="4091"></path><path d="M174.545455 930.909091A34.909091 34.909091 0 0 1 139.636364 896v-5.585455a350.952727 350.952727 0 0 1 349.090909-353.512727 344.203636 344.203636 0 0 1 181.76 52.130909c6.050909 3.723636 11.869091 7.68 17.687272 11.636364a35.141818 35.141818 0 1 1-40.727272 57.018182 145.454545 145.454545 0 0 0-13.963637-9.309091A272.756364 272.756364 0 0 0 488.727273 606.72 281.367273 281.367273 0 0 0 209.454545 890.414545v5.585455A34.909091 34.909091 0 0 1 174.545455 930.909091zM896 822.923636h-203.636364a34.909091 34.909091 0 0 1 0-69.818181h203.636364a34.909091 34.909091 0 0 1 0 69.818181z" p-id="4092"></path><path d="M798.952727 928.116364a34.909091 34.909091 0 0 1-34.909091-34.909091v-209.454546a34.909091 34.909091 0 0 1 69.818182 0v209.454546a34.909091 34.909091 0 0 1-34.909091 34.909091z" p-id="4093"></path></svg>