<?xml version="1.0" standalone="no"?><!DOCTYPE svg PUBLIC "-//W3C//DTD SVG 1.1//EN" "http://www.w3.org/Graphics/SVG/1.1/DTD/svg11.dtd"><svg t="1756629503092" class="icon" viewBox="0 0 1024 1024" version="1.1" xmlns="http://www.w3.org/2000/svg" p-id="33837" xmlns:xlink="http://www.w3.org/1999/xlink" width="200" height="200"><path d="M1023.401461 512c0 33.2805-26.884248 60.164747-60.164747 60.264689H571.766091V963.735311c0 33.2805-26.984189 60.264689-60.264688 60.264689s-60.264689-26.984189-60.264689-60.264689V572.264689H59.866033C26.585533 571.964864-0.198773 544.880734 0.00111 511.600234c0.199883-32.980675 26.884248-59.565099 59.864923-59.864923h391.470623V60.264689c0-33.2805 26.984189-60.264689 60.264688-60.264689s60.264689 26.984189 60.264689 60.264689v391.470622h391.370681c33.180558 0 60.164747 26.984189 60.164747 60.264689 0-0.099941 0 0 0 0z" fill="#999999" p-id="33838"></path></svg>