<?xml version="1.0" standalone="no"?><!DOCTYPE svg PUBLIC "-//W3C//DTD SVG 1.1//EN" "http://www.w3.org/Graphics/SVG/1.1/DTD/svg11.dtd"><svg t="1757235362545" class="icon" viewBox="0 0 1024 1024" version="1.1" xmlns="http://www.w3.org/2000/svg" p-id="38045" xmlns:xlink="http://www.w3.org/1999/xlink" width="200" height="200"><path d="M602.88 512l337.92-339.2a61.44 61.44 0 0 0 0-89.6 61.44 61.44 0 0 0-89.6 0L512 421.12 172.8 83.2a61.44 61.44 0 0 0-89.6 0 61.44 61.44 0 0 0 0 89.6L421.12 512 83.2 851.2a61.44 61.44 0 0 0 0 89.6 60.16 60.16 0 0 0 44.8 19.2 60.16 60.16 0 0 0 44.8-19.2L512 602.88l339.2 337.92a61.44 61.44 0 0 0 89.6 0 61.44 61.44 0 0 0 0-89.6z" fill="#606060" p-id="38046"></path></svg>