<?xml version="1.0" standalone="no"?><!DOCTYPE svg PUBLIC "-//W3C//DTD SVG 1.1//EN" "http://www.w3.org/Graphics/SVG/1.1/DTD/svg11.dtd"><svg t="1757234190397" class="icon" viewBox="0 0 1024 1024" version="1.1" xmlns="http://www.w3.org/2000/svg" p-id="3526" xmlns:xlink="http://www.w3.org/1999/xlink" width="200" height="200"><path d="M756.558209 38.186226l228.29835 223.793809c34.500692 33.784061 47.297685 83.436392 33.374557 129.300814a131.860213 131.860213 0 0 1-100.021295 90.295581c-71.458407 14.63976-130.017446 45.250166-178.441267 92.650227-3.78791 3.685534-5.221173 6.142556-6.04018 13.923128l-0.409504 6.142556-0.204752 3.78791 0.819008 64.803971v35.217324l-0.409504 20.67994-0.307128 8.599579c-5.733053 100.328423-46.581053 180.488785-123.772513 229.117358-41.974136 26.617745-97.257145 20.782316-132.576845-13.923128l-144.04295-141.2788L93.776363 1009.836288a57.125775 57.125775 0 0 1-77.293836-2.149894 54.464001 54.464001 0 0 1-2.252271-75.758197l212.532455-234.440907L63.677836 537.268942A102.683069 102.683069 0 0 1 46.069174 412.882173l2.661774-4.402166C95.61913 335.076457 176.08662 295.661719 279.486321 286.345509a677.728734 677.728734 0 0 1 35.524451-2.047519l20.679941-0.51188 10.544722-0.204752 30.712782-0.409503 47.400061-0.204752 6.142557-0.409504 2.047518-0.204752 3.071279-0.51188a6.449684 6.449684 0 0 0 2.457022-1.023759l1.330888-1.228511c45.14779-44.328783 76.474828-102.887821 93.878738-178.134139 10.647098-46.273926 46.17155-83.129265 92.650227-96.335761A134.624363 134.624363 0 0 1 756.558209 38.186226zM660.529576 102.375942l-6.859189 1.126135a28.972391 28.972391 0 0 0-20.782316 20.884692c-21.498948 92.957355-61.835069 169.227432-125.001024 231.0625l-9.213835 7.57582c-20.065685 12.694617-20.065685 12.694617-47.092933 19.860933l-8.906707 1.228511-4.504542 0.409504-13.616 0.716631-46.581053 0.204752-30.098527 0.409504-9.418587 0.102376-20.475188 0.614256a571.87201 571.87201 0 0 0-29.484271 1.638015c-76.67958 6.859188-126.331912 32.760301-151.823522 72.686918l-1.638015 2.559399 163.392003 160.730228 55.692512 54.566377 50.471339 49.44758 143.940574 141.176424c1.433263 1.433263 4.402165 1.740391 6.347309 0.409503 46.273926-29.177143 72.072663-77.70334 76.065324-146.909476L631.250056 716.631592l0.409504-18.42767v-33.988813l-0.819008-71.151279 0.307128-6.347308 0.716632-8.599579c3.071278-30.712782 14.537384-55.590136 36.241083-76.986709 62.756452-61.527941 139.231281-101.352182 229.526861-119.779851a29.484271 29.484271 0 0 0 22.625084-19.860933 26.105865 26.105865 0 0 0-7.166316-26.412993L684.89505 111.282649a31.429414 31.429414 0 0 0-17.506286-8.59958l-6.756813-0.204751z" p-id="3527"></path></svg>