<?xml version="1.0" standalone="no"?><!DOCTYPE svg PUBLIC "-//W3C//DTD SVG 1.1//EN" "http://www.w3.org/Graphics/SVG/1.1/DTD/svg11.dtd"><svg t="1756621311082" class="icon" viewBox="0 0 1024 1024" version="1.1" xmlns="http://www.w3.org/2000/svg" p-id="23546" xmlns:xlink="http://www.w3.org/1999/xlink" width="200" height="200"><path d="M175.616 833.024l18.944-48.64c13.824-35.328 25.088-74.24 26.112-89.088-71.68-58.88-110.592-135.68-110.592-217.6 0-173.568 178.688-314.368 398.848-314.368s398.848 141.312 398.848 314.368-178.688 314.368-398.848 314.368c-50.688 0-99.84-7.168-145.92-21.504-16.384 2.048-82.944 24.064-137.728 44.544l-49.664 17.92zM508.416 209.92c-194.048 0-351.744 119.808-351.744 267.776 0 69.632 34.816 135.168 98.816 185.344 8.192 6.656 22.528 17.92-0.512 90.624 99.84-34.816 111.616-31.232 118.272-29.184 43.008 13.824 88.064 20.48 135.168 20.48 194.048 0 351.744-119.808 351.744-267.776S702.464 209.92 508.416 209.92z" p-id="23547"></path></svg>