<?xml version="1.0" standalone="no"?><!DOCTYPE svg PUBLIC "-//W3C//DTD SVG 1.1//EN" "http://www.w3.org/Graphics/SVG/1.1/DTD/svg11.dtd"><svg t="1756707979001" class="icon" viewBox="0 0 1024 1024" version="1.1" xmlns="http://www.w3.org/2000/svg" p-id="59460" xmlns:xlink="http://www.w3.org/1999/xlink" width="200" height="200"><path d="M512 158.592c192.64 0 349.376 149.632 349.376 333.568S704.64 825.6 512 825.6a358.4 358.4 0 0 1-138.432-27.392 82.688 82.688 0 0 0-30.912-6.4 80.128 80.128 0 0 0-33.6 7.424l-49.92 23.04 7.104-18.432a89.6 89.6 0 0 0-16.64-91.968A324.288 324.288 0 0 1 162.624 492.16c0-183.936 156.736-333.568 349.376-333.568m0-66.56c-228.288 0-413.376 179.2-413.376 400.128a391.488 391.488 0 0 0 104.448 265.728 20.8 20.8 0 0 1 3.84 21.504l-48.448 125.056a19.904 19.904 0 0 0 17.728 27.456 16.704 16.704 0 0 0 7.872-1.792l150.912-69.632a19.2 19.2 0 0 1 7.68-1.664 19.904 19.904 0 0 1 7.232 1.408 421.76 421.76 0 0 0 162.112 32c228.288 0 413.376-179.2 413.376-400.128S740.288 92.032 512 92.032z" fill="#040000" p-id="59461"></path><path d="M356.288 512a42.176 42.176 0 1 1-42.176-42.112A42.112 42.112 0 0 1 356.288 512M554.112 512A42.112 42.112 0 1 1 512 469.888 42.048 42.048 0 0 1 554.112 512M752 512a42.176 42.176 0 1 1-42.112-42.112A42.112 42.112 0 0 1 752 512" fill="#040000" p-id="59462"></path></svg>