<?xml version="1.0" standalone="no"?><!DOCTYPE svg PUBLIC "-//W3C//DTD SVG 1.1//EN" "http://www.w3.org/Graphics/SVG/1.1/DTD/svg11.dtd"><svg t="1762925743651" class="icon" viewBox="0 0 1024 1024" version="1.1" xmlns="http://www.w3.org/2000/svg" p-id="2516" xmlns:xlink="http://www.w3.org/1999/xlink" width="200" height="200"><path d="M601.870916 119.787776c-123.265626 0-223.562824 100.282209-223.562824 223.552831 0 85.17705 47.909917 159.370547 118.167083 197.103964-146.333986 45.115212-252.981878 181.602474-252.981878 342.560944 0 11.790006 9.545928 21.335535 21.355921 21.335535 11.76942 0 21.340531-9.545528 21.340531-21.335535 0-174.060587 141.621181-315.686165 314.118228-315.756117 2.274458 0.229844 4.517937 0.069953 6.671477-0.410722 120.921615-2.725152 218.464281-101.930091 218.464281-223.497868C825.443733 220.069985 725.145935 119.787776 601.870916 119.787776L601.870916 119.787776zM601.870916 524.20718c-99.726186 0-180.866373-81.140387-180.866373-180.871369 0-99.746572 81.140187-180.871969 180.866373-180.871969 99.736179 0 180.871969 81.130194 180.871969 180.871969C782.742684 443.061796 701.606895 524.20718 601.870916 524.20718L601.870916 524.20718zM647.596713 531.018961c-8.323357-8.354336-46.818057-9.596494-55.181387-1.28313-8.344343 8.314363-8.354336 23.089345-0.039973 31.442682 1.192192 1.192192-13.723695 4.187161 25.822492 5.11853 31.502441 0.75149 91.372849 19.562736 127.332269 35.950625 54.981523 25.021036 92.003422 70.687874 94.067023 73.051271 50.454592 57.555777 77.999916 130.538095 77.999916 207.706775 0 11.790006 9.526541 21.335535 21.335535 21.335535 11.790006 0 21.335535-9.545528 21.335535-21.335535 0-89.799916-32.844531-174.611214-92.874831-240.691211-1.762805-1.943682-48.099189-50.654456-103.742263-75.706471-64.197274-28.898407-115.152726-33.415145-117.31626-35.578678l1.262144 0L647.596913 531.018961 647.596713 531.018961zM376.064412 529.665879c0-0.02998-0.019986-0.049966-0.019986-0.079946 0-0.019986 0.019986-0.059959 0.019986-0.089939 0-11.790006-9.565914-21.345528-21.355921-21.345528-77.44889 0-140.433986-67.307166-140.433986-150.050466 0-82.72811 62.985096-150.040473 140.433986-150.040473 11.790006 0 21.355921-9.545528 21.355921-21.335535 0-11.809393-9.565914-21.355521-21.355921-21.355521-100.98833 0-183.145427 86.459181-183.145427 192.731328 0 70.72285 36.380734 132.641269 90.475857 166.176932-115.16152 40.92865-198.315542 155.910493-198.315542 291.025485 0 11.790006 9.535935 21.335535 21.340531 21.335535 11.804996 0 21.340931-9.545528 21.340931-21.335535 0-145.75278 111.395674-264.291211 248.30345-264.291211C366.498498 551.011406 376.064412 541.465878 376.064412 529.665879L376.064412 529.665879z" fill="#272636" p-id="2517"></path></svg>