<?xml version="1.0" standalone="no"?><!DOCTYPE svg PUBLIC "-//W3C//DTD SVG 1.1//EN" "http://www.w3.org/Graphics/SVG/1.1/DTD/svg11.dtd"><svg t="1756624804733" class="icon" viewBox="0 0 1024 1024" version="1.1" xmlns="http://www.w3.org/2000/svg" p-id="30379" xmlns:xlink="http://www.w3.org/1999/xlink" width="200" height="200"><path d="M902.95040046 999.96707316H34.32971518c-54.36483979 0-42.44666265-84.8634052-42.44666266-84.86340516-1.30651148-51.72189672 42.44666265-84.8634052 42.44666266-84.86340519S257.09490711 722.83704144 288.91993073 702.94016835c25.90084186-16.19675285 37.58963146-47.86220258 41.11023107-59.17200412-75.5981445-70.65135296-147.17702084-188.4567992-147.17702085-259.06825868v-106.0667898c-2.65291642-124.726965 135.18903011-254.59021557 254.5802422-254.59021556h42.4267159c111.42248948-1.3264582 258.56959022 124.55741773 254.57026883 254.59021556v106.07676315c0 57.97519972-48.54039171 183.59976803-126.59198519 258.36014943 3.23137189 10.68147925 14.86032127 43.34426597 41.21993813 59.88011338 31.7352633 19.88689976 253.89207966 127.2901211 253.89207964 127.2901211s43.65344041 33.14150844 42.32698221 84.86340519c0 0 11.89823037 84.8634052-42.32698221 84.86340516z m-42.30703543-127.29012107L606.75128537 745.3768576s-63.4605532-27.84564899-63.46055322-84.87337854l0.21941411-0.07978695v-40.77113651c83.76633448-50.09623742 127.2901211-184.10840988 127.29012114-252.76508884v-103.33408641c0-95.34541703-106.98433981-175.86043291-195.82711965-175.86043293h-32.65281331c-84.61407095 0-195.82711961 82.87870458-195.82711963 175.86043293v103.34405976c0 85.85076882 77.73244567 213.32041058 148.49350568 257.03369123v36.58232107c0 57.01775617-63.62012714 84.87337856-63.62012712 84.87337857L76.77637781 872.68692546c-30.49856541 25.1827592-21.21335797 63.64007385-21.21335792 63.64007385h826.24383624c-0.00997336-0.00997336 9.24531398-38.46728804-21.1634911-63.65004722zM822.63485202 310.03925784h330.36788069v66.07357614H822.63485202z m66.07357614 177.02731721h264.29430455v64.82690487H888.70842816z m66.07357614 177.02731721h198.22072841v63.58023363H954.7820043z" fill="#333333" p-id="30380"></path></svg>