<?xml version="1.0" standalone="no"?><!DOCTYPE svg PUBLIC "-//W3C//DTD SVG 1.1//EN" "http://www.w3.org/Graphics/SVG/1.1/DTD/svg11.dtd"><svg t="1758531890809" class="icon" viewBox="0 0 1024 1024" version="1.1" xmlns="http://www.w3.org/2000/svg" p-id="5372" xmlns:xlink="http://www.w3.org/1999/xlink" width="200" height="200"><path d="M1023.43711 511.718555q0 12.537105-0.614063 25.074209-0.614062 12.588276-1.842186 25.074209-1.228125 12.537105-3.070312 24.920694-1.842187 12.434761-4.298436 24.767178-2.456249 12.281245-5.52656 24.511319-3.070311 12.178902-6.652341 24.204287-3.684374 12.025386-7.931638 23.846085-4.196092 11.820699-9.006246 23.43671-4.810154 11.616011-10.234372 22.924991-5.321873 11.411324-11.257808 22.464445t-12.383589 21.850382q-6.447654 10.74609-13.407026 21.23632-7.010544 10.439059-14.481635 20.519914-7.471091 10.080856-15.4539 19.803508t-16.374994 19.03593q-8.443356 9.262106-17.347259 18.166009-8.903903 8.903903-18.166009 17.296087-9.313278 8.443356-19.03593 16.426166t-19.803508 15.4539q-10.080856 7.471091-20.519914 14.481635-10.439059 6.959372-21.23632 13.407026-10.74609 6.447654-21.850382 12.383589-11.053121 5.935935-22.464445 11.257808-11.30898 5.424217-22.924991 10.234372-11.616011 4.810154-23.43671 9.006246-11.820699 4.247264-23.846085 7.880466-12.025386 3.684374-24.204287 6.703513-12.178902 3.070311-24.562491 5.52656-12.281245 2.456249-24.716006 4.298436-12.383589 1.842187-24.920694 3.070312-12.485933 1.228125-25.074209 1.842186Q524.306831 1023.43711 511.718555 1023.43711t-25.074209-0.614063q-12.588276-0.614062-25.07421-1.842186-12.485933-1.228125-24.920693-3.070312t-24.767178-4.298436q-12.281245-2.456249-24.511319-5.52656-12.178902-3.070311-24.204288-6.652341-12.025386-3.684374-23.846084-7.931638-11.820699-4.196092-23.43671-9.006246-11.616011-4.810154-22.976163-10.234372-11.30898-5.321873-22.413273-11.257808-11.053121-5.935935-21.850382-12.383589-10.74609-6.447654-21.23632-13.407026-10.439059-7.010544-20.519914-14.481635-10.080856-7.471091-19.803508-15.4539t-19.035931-16.374994q-9.262106-8.443356-18.166008-17.347259-8.903903-8.903903-17.347259-18.166009-8.392184-9.313278-16.374994-19.03593t-15.4539-19.803508q-7.471091-10.080856-14.481636-20.519914-6.959372-10.439059-13.407026-21.23632-6.447654-10.74609-12.383589-21.850382-5.935935-11.053121-11.257808-22.464445-5.424217-11.30898-10.234371-22.924991-4.810154-11.616011-9.006247-23.43671-4.247264-11.820699-7.880465-23.846085-3.684374-12.025386-6.703513-24.204287-3.070311-12.178902-5.526561-24.562491-2.456249-12.281245-4.298436-24.716006-1.842187-12.383589-3.070311-24.920694-1.228125-12.485933-1.842187-25.074209Q0 524.306831 0 511.718555t0.614062-25.074209q0.614062-12.588276 1.842187-25.07421 1.228125-12.485933 3.070311-24.920693t4.298436-24.767178Q12.281245 399.652191 15.351557 387.370946q3.070311-12.178902 6.652341-24.204288 3.684374-12.025386 7.931637-23.846084 4.196092-11.820699 9.006247-23.43671 4.810154-11.616011 10.234371-22.976163 5.321873-11.30898 11.257808-22.413273 5.935935-11.053121 12.383589-21.850382 6.447654-10.74609 13.407026-21.23632 7.010544-10.439059 14.481636-20.519914 7.471091-10.080856 15.4539-19.803508t16.374994-19.035931q8.443356-9.262106 17.347259-18.166008 8.903903-8.903903 18.166008-17.347259 9.313278-8.392184 19.035931-16.374994t19.803508-15.4539q10.080856-7.471091 20.519914-14.481636 10.439059-6.959372 21.23632-13.407026 10.74609-6.447654 21.850382-12.383589 11.104293-5.935935 22.413273-11.257808 11.360152-5.424217 23.027335-10.234371Q327.499875 34.131628 339.269402 29.935535q11.820699-4.247264 23.846084-7.880465Q375.192044 18.370696 387.370946 15.351557q12.178902-3.070311 24.562491-5.526561 12.281245-2.456249 24.716006-4.298436 12.434761-1.842187 24.920693-3.070311t25.07421-1.842187Q499.130278 0 511.718555 0t25.074209 0.614062q12.588276 0.614062 25.074209 1.842187 12.537105 1.228125 24.920694 3.070311 12.434761 1.842187 24.767178 4.298436 12.281245 2.456249 24.511319 5.526561 12.178902 3.070311 24.204287 6.652341 12.025386 3.684374 23.846085 7.931637 11.820699 4.196092 23.43671 9.006247 11.616011 4.810154 22.924991 10.234371 11.411324 5.321873 22.464445 11.257808t21.850382 12.383589q10.74609 6.447654 21.23632 13.407026 10.439059 7.010544 20.519914 14.481636 10.080856 7.471091 19.803508 15.4539t19.03593 16.374994q9.262106 8.443356 18.166009 17.347259 8.903903 8.903903 17.296087 18.166008 8.443356 9.313278 16.426166 19.035931t15.4539 19.803508q7.471091 10.080856 14.481635 20.519914 6.959372 10.439059 13.407026 21.23632 6.447654 10.74609 12.383589 21.850382 5.935935 11.104293 11.257808 22.413273 5.424217 11.360152 10.234372 23.027335 4.810154 11.564839 9.006246 23.385538 4.247264 11.820699 7.880466 23.846084 3.684374 12.025386 6.703513 24.204288 3.070311 12.178902 5.52656 24.562491 2.456249 12.281245 4.298436 24.716006 1.842187 12.434761 3.070312 24.920693t1.842186 25.07421Q1023.43711 499.130278 1023.43711 511.718555z" fill="#FF8800" p-id="5373"></path><path d="M791.628604 421.553745c-9.722653-56.80076-38.174204-102.59957-83.410124-137.90815-38.89061-30.447254-83.717156-46.566388-132.535106-52.96287-11.769527-1.535156-23.539054-2.302733-35.30858-3.326171h-35.30858c-9.517965 1.023437-18.728899 2.046874-27.939834 3.326171-130.744091 15.607416-222.085853 118.718705-242.810454 227.970616-2.558593 14.07226-3.837889 28.40038-5.884763 42.728499-0.255859 1.535156-0.511719 3.326171-1.023437 4.861326v38.634751c1.023437 9.466793 2.046874 18.677727 3.32617 27.888661 13.560542 102.85543 82.898406 182.683524 182.939384 210.572186 22.515616 6.140623 45.287092 10.234371 68.826145 11.257808 1.535156 0 3.326171 0.511719 4.861327 1.023437h45.542951c11.769527-1.023437 23.539054-2.046874 35.30858-3.326171 28.912098-3.326171 57.312478-9.210934 84.177703-20.468742 1.535156-0.767578 3.58203-2.558593 3.582029-4.093748 0.255859-20.980461 0.255859-41.705062 0.25586-63.197242-8.955075 3.58203-17.398431 7.16406-26.097647 10.234371-37.867173 13.816401-77.269502 19.445305-117.695267 18.933587a262.56279 262.56279 0 0 1-79.572235-12.537105c-49.6367-16.886712-86.480436-48.357403-108.228475-96.203088-19.189446-41.960921-22.259757-86.224576-17.398431-131.511669a225.667883 225.667883 0 0 1 31.726551-95.43551c41.449203-66.779271 99.785118-105.925741 180.124931-108.996052 29.167958-1.023437 57.568337 1.791015 85.201139 11.001949a160.679626 160.679626 0 0 1 88.015592 70.61716c22.515616 36.587877 28.40038 76.757783 26.353505 118.718705-1.023437 23.283194-4.093748 46.310529-12.537104 68.314427-5.884763 15.863275-13.560542 30.958973-27.888661 41.193344a35.666783 35.666783 0 0 1-20.724602 6.652341c-11.257808 0-19.701164-6.652341-22.515616-19.957024a116.160112 116.160112 0 0 1-3.326171-29.679676c1.279296-32.494128 3.58203-64.988256 5.884763-97.482385 2.558593-31.214832 5.628904-62.429664 8.699216-94.156214h-75.478487c-1.023437 11.001949-2.302733 22.259757-3.58203 35.052721-1.279296-2.558593-2.046874-3.837889-2.558593-4.861326-8.955075-23.539054-27.121083-34.029284-51.171855-36.076158-45.542951-3.837889-79.828095 16.119134-106.949178 51.427715-22.003898 28.912098-32.749988 62.173804-36.332017 97.994103-2.558593 27.121083-2.558593 53.986308 4.861326 80.339813 8.443356 30.191395 24.306631 54.753885 52.96287 69.337864 29.679676 15.095697 78.03708 15.095697 105.158163-14.328119 9.466793-10.234371 16.630853-21.748039 21.748039-34.541003 1.023437-2.558593 2.046874-4.861326 3.32617-7.16406 0.511719 0 1.023437 0.255859 1.535156 0.25586 0.511719 3.070311 0.767578 5.884763 1.279296 8.955074 5.884763 30.191395 28.912098 52.195293 59.871071 55.777323 46.822248 5.373045 86.736295-9.210934 119.742142-42.728499 32.749988-33.261706 48.357403-73.943331 53.21873-119.742142 0.511719-5.884763 1.535156-11.769527 2.046874-17.398431v-33.773425c-1.279296-10.49023-2.558593-20.724601-4.349608-31.214832z m-243.373344 138.675729c-5.373045 13.816401-12.537105 26.353506-24.050772 36.076158-25.585928 20.724601-59.871071 11.257808-71.12888-19.957024-7.931638-22.003898-7.419919-44.263655-4.605467-66.779271 3.070311-24.81835 10.74609-48.357403 26.097647-68.570286 10.74609-14.32812 24.562491-22.515616 42.984358-21.748039 18.421868 0.767578 29.935535 11.001949 37.355455 26.865224 5.884763 12.537105 6.140623 26.097646 5.884763 39.658188-0.255859 25.585928-3.070311 50.660137-12.537104 74.45505z" fill="#FFFFFF" p-id="5374"></path></svg>